<svg height="128" width="128" xmlns="http://www.w3.org/2000/svg"><g transform="translate(151.65108 37.039597)"><path d="m-135.65108-37.039597c-8.86 0-16 7.13-16 15.99v95.98c0 8.86 7.13 15.99 16 15.99h96c8.86 0 16-7.13 16-15.99v-95.98c0-8.85-7.14-15.99-16-15.99z" fill="#363d52"/><path d="m-135.65108-37.039597c-8.86 0-16 7.13-16 15.99v95.98c0 8.86 7.13 15.99 16 15.99h96c8.86 0 16-7.13 16-15.99v-95.98c0-8.85-7.14-15.99-16-15.99zm0 4h96c6.64 0 12 5.35 12 11.99v95.98c0 6.64-5.35 11.99-12 11.99h-96c-6.64 0-12-5.35-12-11.99v-95.98c0-6.64 5.36-11.99 12-11.99z" fill-opacity=".4"/></g><g stroke-width="4.16261"><g transform="translate(.000212 -5.143426)"><path d="m22.972327 55.231384v19.922765 2.530494 2.302812c.04528.00042.09057.0021.135435.0063l15.177093 1.463368c.794999.07673 1.418083.716588 1.473431 1.513264l.467942 6.699624 13.239075.94469.911984-6.183462c.118243-.801707.8059-1.39586 1.616832-1.39586h16.012345c.810513 0 1.49817.594153 1.616414 1.39586l.911984 6.183462 13.239493-.94469.467523-6.699624c.05577-.796676.678433-1.436113 1.473431-1.513264l15.171221-1.463368c.0449-.0042.0897-.0059.13502-.0063v-1.975336l.006-.0021v-22.778635c2.13715-2.690446 4.16084-5.658163 5.71132-8.155025-2.36948-4.033695-5.27273-7.638444-8.37599-10.978192-2.8781 1.448692-5.673593 3.089844-8.313944 4.836241-1.321224-1.313257-2.809331-2.387512-4.271021-3.510405-1.436113-1.153503-3.054623-1.999237-4.589691-2.984599.45704-3.403483.683044-6.754134.774033-10.251121-3.960737-1.993367-8.184376-3.31501-12.456655-4.264312-1.705725 2.866775-3.265532 5.971294-4.624074 9.00621-1.610962-.269193-3.229472-.368987-4.850078-.388275v-.0025c-.01132 0-.0218.0025-.03145.0025-.01006 0-.02055-.0025-.03061-.0025v.0025c-1.623542.01929-3.240794.119082-4.852175.388275-1.357703-3.034916-2.916672-6.139435-4.624913-9.00621-4.270182.949302-8.494241 2.270945-12.454558 4.264312.09057 3.496987.316573 6.847638.774872 10.251121-1.538004.985362-3.154417 1.831096-4.590949 2.984599-1.459594 1.122893-2.950217 2.197148-4.27186 3.510405-2.640351-1.746397-5.435006-3.387549-8.313941-4.836241-3.103262 3.339748-6.004839 6.944497-8.375159 10.978192 1.86282 2.92409 3.86093 5.863067 5.711327 8.155025z" fill="#478cbf"/><path d="m91.409269 94.864712-.470039 6.735268c-.05661.81177-.702332 1.45791-1.514103 1.5162l-16.166229 1.1535c-.03941.003-.07883.004-.117824.004-.803385 0-1.496493-.58954-1.615156-1.39628l-.927079-6.28683h-13.190854l-.927079 6.28703c-.124533.84615-.880956 1.45456-1.73298 1.39209l-16.166229-1.15351c-.811771-.0583-1.457497-.70443-1.514103-1.5162l-.470039-6.735268-13.647056-1.315773c.0063 1.466722.02516 3.073491.02516 3.39342 0 14.413121 18.283709 21.340851 40.999871 21.420521h.02767.02809c22.716162-.0797 40.99357-7.0074 40.99357-21.420521 0-.325799.0197-1.925859.0264-3.39342z" fill="#478cbf"/><path d="m51.631837 65.280697c0 5.05344-4.094494 9.147096-9.146257 9.147096-5.049248 0-9.145-4.093656-9.145-9.147096 0-5.050086 4.095752-9.141645 9.145-9.141645 5.051763 0 9.146257 4.091559 9.146257 9.141645" fill="#fff"/><path d="m45.482758 65.284681c0 3.351909-2.716664 6.068573-6.071089 6.068573-3.352747 0-6.071089-2.716664-6.071089-6.068573s2.718342-6.071089 6.071089-6.071089c3.354425 0 6.071089 2.71918 6.071089 6.071089" fill="#414042"/><path d="m63.999414 75.259944c-1.626057 0-2.943927-1.198368-2.943927-2.675573v-8.420024c0-1.475947 1.31787-2.675573 2.943927-2.675573s2.946862 1.199626 2.946862 2.675573v8.420024c0 1.477205-1.320805 2.675573-2.946862 2.675573" fill="#fff"/><path d="m76.368519 65.280697c0 5.05344 4.094494 9.147096 9.147096 9.147096 5.048828 0 9.144161-4.093656 9.144161-9.147096 0-5.050086-4.095333-9.141645-9.144161-9.141645-5.052602 0-9.147096 4.091559-9.147096 9.141645" fill="#fff"/><path d="m82.520953 65.284681c0 3.351909 2.715826 6.068573 6.067734 6.068573 3.355263 0 6.071089-2.716664 6.071089-6.068573s-2.715826-6.071089-6.071089-6.071089c-3.351908 0-6.067734 2.71918-6.067734 6.071089" fill="#414042"/></g><g opacity=".4" transform="translate(-3.999707 -5.143426)"><path d="m22.972327 55.231384v19.922765 2.530494 2.302812c.04528.00042.09057.0021.135435.0063l15.177093 1.463368c.794999.07673 1.418083.716588 1.473431 1.513264l.467942 6.699624 13.239075.94469.911984-6.183462c.118243-.801707.8059-1.39586 1.616832-1.39586h16.012345c.810513 0 1.49817.594153 1.616414 1.39586l.911984 6.183462 13.239493-.94469.467523-6.699624c.05577-.796676.678433-1.436113 1.473431-1.513264l15.171221-1.463368c.0449-.0042.0897-.0059.13502-.0063v-1.975336l.006-.0021v-22.778635c2.13715-2.690446 4.16084-5.658163 5.71132-8.155025-2.36948-4.033695-5.27273-7.638444-8.37599-10.978192-2.8781 1.448692-5.673593 3.089844-8.313944 4.836241-1.321224-1.313257-2.809331-2.387512-4.271021-3.510405-1.436113-1.153503-3.054623-1.999237-4.589691-2.984599.45704-3.403483.683044-6.754134.774033-10.251121-3.960737-1.993367-8.184376-3.31501-12.456655-4.264312-1.705725 2.866775-3.265532 5.971294-4.624074 9.00621-1.610962-.269193-3.229472-.368987-4.850078-.388275v-.0025c-.01132 0-.0218.0025-.03145.0025-.01006 0-.02055-.0025-.03061-.0025v.0025c-1.623542.01929-3.240794.119082-4.852175.388275-1.357703-3.034916-2.916672-6.139435-4.624913-9.00621-4.270182.949302-8.494241 2.270945-12.454558 4.264312.09057 3.496987.316573 6.847638.774872 10.251121-1.538004.985362-3.154417 1.831096-4.590949 2.984599-1.459594 1.122893-2.950217 2.197148-4.27186 3.510405-2.640351-1.746397-5.435006-3.387549-8.313941-4.836241-3.103262 3.339748-6.004839 6.944497-8.375159 10.978192 1.86282 2.92409 3.86093 5.863067 5.711327 8.155025z" fill="#478cbf"/><path d="m91.409269 94.864712-.470039 6.735268c-.05661.81177-.702332 1.45791-1.514103 1.5162l-16.166229 1.1535c-.03941.003-.07883.004-.117824.004-.803385 0-1.496493-.58954-1.615156-1.39628l-.927079-6.28683h-13.190854l-.927079 6.28703c-.124533.84615-.880956 1.45456-1.73298 1.39209l-16.166229-1.15351c-.811771-.0583-1.457497-.70443-1.514103-1.5162l-.470039-6.735268-13.647056-1.315773c.0063 1.466722.02516 3.073491.02516 3.39342 0 14.413121 18.283709 21.340851 40.999871 21.420521h.02767.02809c22.716162-.0797 40.99357-7.0074 40.99357-21.420521 0-.325799.0197-1.925859.0264-3.39342z" fill="#478cbf"/><path d="m51.631837 65.280697c0 5.05344-4.094494 9.147096-9.146257 9.147096-5.049248 0-9.145-4.093656-9.145-9.147096 0-5.050086 4.095752-9.141645 9.145-9.141645 5.051763 0 9.146257 4.091559 9.146257 9.141645" fill="#fff"/><path d="m45.482758 65.284681c0 3.351909-2.716664 6.068573-6.071089 6.068573-3.352747 0-6.071089-2.716664-6.071089-6.068573s2.718342-6.071089 6.071089-6.071089c3.354425 0 6.071089 2.71918 6.071089 6.071089" fill="#414042"/><path d="m63.999414 75.259944c-1.626057 0-2.943927-1.198368-2.943927-2.675573v-8.420024c0-1.475947 1.31787-2.675573 2.943927-2.675573s2.946862 1.199626 2.946862 2.675573v8.420024c0 1.477205-1.320805 2.675573-2.946862 2.675573" fill="#fff"/><path d="m76.368519 65.280697c0 5.05344 4.094494 9.147096 9.147096 9.147096 5.048828 0 9.144161-4.093656 9.144161-9.147096 0-5.050086-4.095333-9.141645-9.144161-9.141645-5.052602 0-9.147096 4.091559-9.147096 9.141645" fill="#fff"/><path d="m82.520953 65.284681c0 3.351909 2.715826 6.068573 6.067734 6.068573 3.355263 0 6.071089-2.716664 6.071089-6.068573s-2.715826-6.071089-6.071089-6.071089c-3.351908 0-6.067734 2.71918-6.067734 6.071089" fill="#414042"/></g><g opacity=".4" transform="translate(4.000293 -5.143426)"><path d="m22.972327 55.231384v19.922765 2.530494 2.302812c.04528.00042.09057.0021.135435.0063l15.177093 1.463368c.794999.07673 1.418083.716588 1.473431 1.513264l.467942 6.699624 13.239075.94469.911984-6.183462c.118243-.801707.8059-1.39586 1.616832-1.39586h16.012345c.810513 0 1.49817.594153 1.616414 1.39586l.911984 6.183462 13.239493-.94469.467523-6.699624c.05577-.796676.678433-1.436113 1.473431-1.513264l15.171221-1.463368c.0449-.0042.0897-.0059.13502-.0063v-1.975336l.006-.0021v-22.778635c2.13715-2.690446 4.16084-5.658163 5.71132-8.155025-2.36948-4.033695-5.27273-7.638444-8.37599-10.978192-2.8781 1.448692-5.673593 3.089844-8.313944 4.836241-1.321224-1.313257-2.809331-2.387512-4.271021-3.510405-1.436113-1.153503-3.054623-1.999237-4.589691-2.984599.45704-3.403483.683044-6.754134.774033-10.251121-3.960737-1.993367-8.184376-3.31501-12.456655-4.264312-1.705725 2.866775-3.265532 5.971294-4.624074 9.00621-1.610962-.269193-3.229472-.368987-4.850078-.388275v-.0025c-.01132 0-.0218.0025-.03145.0025-.01006 0-.02055-.0025-.03061-.0025v.0025c-1.623542.01929-3.240794.119082-4.852175.388275-1.357703-3.034916-2.916672-6.139435-4.624913-9.00621-4.270182.949302-8.494241 2.270945-12.454558 4.264312.09057 3.496987.316573 6.847638.774872 10.251121-1.538004.985362-3.154417 1.831096-4.590949 2.984599-1.459594 1.122893-2.950217 2.197148-4.27186 3.510405-2.640351-1.746397-5.435006-3.387549-8.313941-4.836241-3.103262 3.339748-6.004839 6.944497-8.375159 10.978192 1.86282 2.92409 3.86093 5.863067 5.711327 8.155025z" fill="#478cbf"/><path d="m91.409269 94.864712-.470039 6.735268c-.05661.81177-.702332 1.45791-1.514103 1.5162l-16.166229 1.1535c-.03941.003-.07883.004-.117824.004-.803385 0-1.496493-.58954-1.615156-1.39628l-.927079-6.28683h-13.190854l-.927079 6.28703c-.124533.84615-.880956 1.45456-1.73298 1.39209l-16.166229-1.15351c-.811771-.0583-1.457497-.70443-1.514103-1.5162l-.470039-6.735268-13.647056-1.315773c.0063 1.466722.02516 3.073491.02516 3.39342 0 14.413121 18.283709 21.340851 40.999871 21.420521h.02767.02809c22.716162-.0797 40.99357-7.0074 40.99357-21.420521 0-.325799.0197-1.925859.0264-3.39342z" fill="#478cbf"/><path d="m51.631837 65.280697c0 5.05344-4.094494 9.147096-9.146257 9.147096-5.049248 0-9.145-4.093656-9.145-9.147096 0-5.050086 4.095752-9.141645 9.145-9.141645 5.051763 0 9.146257 4.091559 9.146257 9.141645" fill="#fff"/><path d="m45.482758 65.284681c0 3.351909-2.716664 6.068573-6.071089 6.068573-3.352747 0-6.071089-2.716664-6.071089-6.068573s2.718342-6.071089 6.071089-6.071089c3.354425 0 6.071089 2.71918 6.071089 6.071089" fill="#414042"/><path d="m63.999414 75.259944c-1.626057 0-2.943927-1.198368-2.943927-2.675573v-8.420024c0-1.475947 1.31787-2.675573 2.943927-2.675573s2.946862 1.199626 2.946862 2.675573v8.420024c0 1.477205-1.320805 2.675573-2.946862 2.675573" fill="#fff"/><path d="m76.368519 65.280697c0 5.05344 4.094494 9.147096 9.147096 9.147096 5.048828 0 9.144161-4.093656 9.144161-9.147096 0-5.050086-4.095333-9.141645-9.144161-9.141645-5.052602 0-9.147096 4.091559-9.147096 9.141645" fill="#fff"/><path d="m82.520953 65.284681c0 3.351909 2.715826 6.068573 6.067734 6.068573 3.355263 0 6.071089-2.716664 6.071089-6.068573s-2.715826-6.071089-6.071089-6.071089c-3.351908 0-6.067734 2.71918-6.067734 6.071089" fill="#414042"/></g></g></svg>