<svg height="16" viewBox="0 0 16 16" width="16" xmlns="http://www.w3.org/2000/svg"><g fill="#e0e0e0"><path d="m7 2a6 6 0 0 0 -6 5.9999999 6 6 0 0 0 6 6.0000001 6 6 0 0 0 6-6.0000001 6 6 0 0 0 -6-5.9999999zm0 1.9999999a4 4 0 0 1 4 4 4 4 0 0 1 -4 4.0000001 4 4 0 0 1 -4-4.0000001 4 4 0 0 1 4-4z" opacity=".4"/><path d="m9 2a6 6 0 0 0 -6 5.9999999 6 6 0 0 0 6 6.0000001 6 6 0 0 0 6-6.0000001 6 6 0 0 0 -6-5.9999999zm0 1.9999999a4 4 0 0 1 4 4 4 4 0 0 1 -4 4.0000001 4 4 0 0 1 -4-4.0000001 4 4 0 0 1 4-4z" opacity=".4"/><path d="m8 2a6 6 0 0 0 -6 5.9999999 6 6 0 0 0 6 6.0000001 6 6 0 0 0 6-6.0000001 6 6 0 0 0 -6-5.9999999zm0 1.9999999a4 4 0 0 1 4 4 4 4 0 0 1 -4 4.0000001 4 4 0 0 1 -4-4.0000001 4 4 0 0 1 4-4z" opacity=".8"/></g></svg>